<svg width="16" height="11" viewBox="0 0 16 11" fill="none" xmlns="http://www.w3.org/2000/svg">
<path fill-rule="evenodd" clip-rule="evenodd" d="M5.52584 1.49994C4.98717 1.49994 4.47056 1.71058 4.08967 2.08553C3.70877 2.46048 3.49478 2.96903 3.49478 3.49929C3.49478 4.02955 3.70877 4.53809 4.08967 4.91304C4.47056 5.28799 4.98717 5.49863 5.52584 5.49863C6.06451 5.49863 6.58112 5.28799 6.96202 4.91304C7.34292 4.53809 7.5569 4.02955 7.5569 3.49929C7.5569 2.96903 7.34292 2.46048 6.96202 2.08553C6.58112 1.71058 6.06451 1.49994 5.52584 1.49994ZM1.97149 3.49929C1.97141 2.91935 2.11778 2.34849 2.39743 1.83805C2.67708 1.32761 3.08123 0.8936 3.57354 0.575057C4.06585 0.256514 4.63087 0.0634286 5.21779 0.0131663C5.80471 -0.0370959 6.39512 0.0570417 6.93591 0.287112C7.47671 0.517183 7.95092 0.875971 8.31591 1.33121C8.6809 1.78644 8.92522 2.32384 9.02688 2.89508C9.12854 3.46632 9.08437 4.05347 8.89833 4.60374C8.71229 5.154 8.39022 5.65011 7.96109 6.04745C8.77032 6.43391 9.47292 7.00681 10.0093 7.71754C10.5457 8.42827 10.9 9.25586 11.0422 10.1301C11.0579 10.2274 11.0539 10.3268 11.0306 10.4225C11.0072 10.5183 10.965 10.6086 10.9062 10.6883C10.8474 10.768 10.7732 10.8355 10.6879 10.887C10.6026 10.9385 10.5078 10.9729 10.409 10.9883C10.3102 11.0038 10.2093 10.9999 10.112 10.9769C10.0147 10.9539 9.92293 10.9123 9.84197 10.8544C9.76101 10.7965 9.69243 10.7235 9.64013 10.6396C9.58784 10.5556 9.55286 10.4623 9.53719 10.365C9.38352 9.42671 8.89543 8.57292 8.16038 7.95665C7.42533 7.34039 6.49136 7.00193 5.52584 7.00193C4.56032 7.00193 3.62636 7.34039 2.89131 7.95665C2.15626 8.57292 1.66817 9.42671 1.5145 10.365C1.49876 10.4623 1.46371 10.5556 1.41136 10.6395C1.359 10.7235 1.29036 10.7964 1.20936 10.8543C1.12835 10.9121 1.03657 10.9537 0.939251 10.9766C0.841931 10.9995 0.740978 11.0033 0.642157 10.9878C0.543336 10.9723 0.448583 10.9378 0.363306 10.8863C0.27803 10.8348 0.203901 10.7672 0.145152 10.6875C0.0864023 10.6077 0.0441832 10.5174 0.0209049 10.4216C-0.00237339 10.3258 -0.00625504 10.2264 0.00948161 10.1291C0.151996 9.25522 0.506457 8.42803 1.04282 7.71767C1.57918 7.00731 2.28162 6.43472 3.0906 6.04845C2.73672 5.7216 2.45479 5.32669 2.26229 4.8882C2.06978 4.44971 1.97081 3.97697 1.97149 3.49929V3.49929ZM11.1113 1.99978C10.9093 1.99978 10.7155 2.07877 10.5727 2.21937C10.4299 2.35998 10.3496 2.55068 10.3496 2.74953C10.3496 2.94838 10.4299 3.13908 10.5727 3.27969C10.7155 3.42029 10.9093 3.49929 11.1113 3.49929C11.4549 3.4993 11.7884 3.61368 12.0576 3.82383C12.3269 4.03398 12.516 4.32756 12.5944 4.65689C12.6727 4.98622 12.6356 5.33196 12.4892 5.63793C12.3427 5.94391 12.0955 6.19216 11.7876 6.34235C11.6606 6.40452 11.5538 6.50034 11.4792 6.61902C11.4046 6.73771 11.3651 6.87455 11.3651 7.01413V7.36602C11.3649 7.53443 11.4223 7.69801 11.5281 7.83039C11.6338 7.96278 11.7818 8.05626 11.9481 8.09578C13.1667 8.38469 14.1436 9.29539 14.5092 10.467C14.5382 10.5615 14.5859 10.6495 14.6495 10.7258C14.7132 10.8021 14.7915 10.8654 14.88 10.9118C14.9685 10.9583 15.0654 10.9871 15.1653 10.9965C15.2651 11.006 15.3659 10.996 15.4618 10.967C15.5577 10.9381 15.6468 10.8907 15.7241 10.8278C15.8013 10.7648 15.8652 10.6874 15.912 10.6001C15.9588 10.5128 15.9876 10.4172 15.9968 10.3189C16.006 10.2206 15.9953 10.1214 15.9655 10.0271C15.7623 9.37793 15.427 8.77621 14.98 8.25857C14.5331 7.74094 13.9839 7.31822 13.3657 7.01613C13.7628 6.58622 14.0244 6.05203 14.1188 5.47849C14.2132 4.90496 14.1363 4.31678 13.8975 3.78545C13.6587 3.25411 13.2683 2.80249 12.7737 2.48549C12.279 2.16849 11.7015 1.99975 11.1113 1.99978V1.99978Z" fill="#484F58"/>
</svg>
